<?xml version="1.0" encoding="UTF-8" standalone="no"?>
<svg width="23px" height="19px" viewBox="0 0 23 19" version="1.1" xmlns="http://www.w3.org/2000/svg" xmlns:xlink="http://www.w3.org/1999/xlink">
    <!-- Generator: Sketch 41.2 (35397) - http://www.bohemiancoding.com/sketch -->
    <title>Combined Shape</title>
    <desc>Created with Sketch.</desc>
    <defs></defs>
    <g id="Page-1" stroke="none" stroke-width="1" fill="none" fill-rule="evenodd">
        <path d="M17.9169922,15.5175781 L15.0825195,15.5175781 L15.0825195,13.9135742 L17.9169922,13.9135742 L17.9169922,11.0571289 L19.5209961,11.0571289 L19.5209961,13.9135742 L22.3554688,13.9135742 L22.3554688,15.5175781 L19.5209961,15.5175781 L19.5209961,18.3374023 L17.9169922,18.3374023 L17.9169922,15.5175781 Z M1,0 C1,0.979 1.14225,3.156 1.15625,3.375 C0.44925,3.864 0,4.6655 0,5.5625 C0,6.9015 0.99725,8.01675 2.28125,8.21875 C3.61825,11.48375 6.319,15 10,15 C13.681,15 16.38275,11.48475 17.71875,8.21875 C19.00275,8.01775 20,6.9015 20,5.5625 C20,4.6655 19.55075,3.865 18.84375,3.375 C18.85675,3.155 19,0.988 19,0 L17.09375,0 C17.09375,3.109 16.71875,4.65625 16.71875,4.65625 L17.5,4.90625 C17.793,4.99525 18,5.2625 18,5.5625 C18,5.9785 17.61475,6.315 17.21875,6.25 L16.375,6.09375 L16.09375,6.875 C15.00575,9.919 12.705,13 10,13 C7.295,13 4.99325,9.919 3.90625,6.875 L3.625,6.09375 L2.78125,6.25 C2.38125,6.316 2,5.9785 2,5.5625 C2,5.2625 2.207,4.99525 2.5,4.90625 L3.28125,4.6875 C3.28125,4.6875 2.90625,2.906 2.90625,0 L1,0 Z M7.5,1 C6.6715729,1 6,1.6715729 6,2.5 C6,3.3284271 6.6715729,4 7.5,4 C8.328427,4 9,3.3284271 9,2.5 C9,1.6715729 8.328427,1 7.5,1 Z M12.5,1 C11.671573,1 11,1.6715729 11,2.5 C11,3.3284271 11.671573,4 12.5,4 C13.328427,4 14,3.3284271 14,2.5 C14,1.6715729 13.328427,1 12.5,1 Z M9.375,6 C9.035,6 8.81275,6.237 8.59375,6.5 C8.36275,6.781 7.76625,7.469 7.28125,7.625 C6.23625,7.961 6.02,6.83625 6.625,6.65625 C6.285,6.65625 6.001,6.9455 6,7.3125 C6,7.7935 6.3125,8.3125 7.8125,8.3125 C8.63475,8.3125 9.539177,8.113398 10,7.625 C10.460823,8.113398 11.36525,8.3125 12.1875,8.3125 C13.6865,8.3125 14,7.7935 14,7.3125 C14,6.9455 13.715,6.65625 13.375,6.65625 C13.98,6.83625 13.76375,7.961 12.71875,7.625 C12.23375,7.469 11.63725,6.781 11.40625,6.5 C11.18725,6.237 10.965,6 10.625,6 C10.386814,6 10.163893,6.076279 10,6.21875 C9.836107,6.076279 9.613186,6 9.375,6 Z" id="Combined-Shape" fill="#000000"></path>
    </g>
</svg>