<?xml version="1.0" encoding="utf-8"?>
<svg xmlns="http://www.w3.org/2000/svg" viewBox="0 0 24 24" enable-background="new 0 0 24 24" fill="#000000"><path style="text-indent:0;text-align:start;line-height:normal;text-transform:none;block-progression:tb;-inkscape-font-specification:Bitstream Vera Sans" d="M 10 0.75 L 9.40625 1.1875 L 5.65625 4 L 5 4 L 3.84375 4 L 4 5.125 L 5.90625 19.25 C 6.0372739 20.23665 6.8803207 21 7.875 21 L 16.125 21 C 17.119679 21 17.962726 20.23665 18.09375 19.25 L 20 5.125 L 20.15625 4 L 19 4 L 17.65625 4 L 15 2 L 12.8125 2.84375 L 10.59375 1.1875 L 10 0.75 z M 10 3.25 L 11 4 L 9 4 L 10 3.25 z M 6.15625 6 L 17.84375 6 L 16.125 19 L 7.875 19 L 6.15625 6 z" color="#000" overflow="visible" enable-background="accumulate" font-family="Bitstream Vera Sans" fill="#000000"/></svg>
