<?xml version="1.0" encoding="UTF-8" standalone="no"?>
<svg width="248px" height="575px" viewBox="0 0 248 575" version="1.1" xmlns="http://www.w3.org/2000/svg" xmlns:xlink="http://www.w3.org/1999/xlink">
    <!-- Generator: Sketch 41.2 (35397) - http://www.bohemiancoding.com/sketch -->
    <title>Slice 1</title>
    <desc>Created with Sketch.</desc>
    <defs></defs>
    <g id="Page-1" stroke="none" stroke-width="1" fill="none" fill-rule="evenodd" fill-opacity="0.114187047">
        <g id="Silhouette-Obama" transform="translate(1.000000, 2.000000)" stroke="#84D020" stroke-width="2" fill="#FFFFFF">
            <g id="male-body-black-silhouette" transform="translate(0.000000, 0.731170)">
                <path d="M148.585457,39.9742956 C148.585457,39.9742956 157.902381,39.582216 147.134918,57.3378198 C147.134918,57.3378198 144.457,59.9703541 143.39699,58.2340017 C143.39699,58.2340017 142.894881,63.8911499 140.495912,66.0755932 L140.495912,83.3270946 C140.495912,83.3270946 142.169611,89.3203111 163.314007,94.7534138 C163.314007,94.7534138 192.436367,99.4023573 196.732194,114.805484 C196.732194,114.805484 202.032241,130.824735 200.302752,145.77977 C200.302752,145.77977 200.135382,148.356293 201.641711,153.341305 C201.641711,153.341305 205.770168,163.927454 207.053337,186.219978 C207.053337,186.219978 208.224927,189.244592 210.344945,193.781513 C210.344945,193.781513 215.421832,199.830741 219.271339,250.072938 C219.271339,250.072938 221.558728,264.803928 223.065057,267.156405 C223.065057,267.156405 232.04724,272.757542 233.999889,276.678338 C233.999889,276.678338 235.785168,278.526713 238.518876,279.926997 C238.518876,279.926997 240.750475,281.215259 242.535753,284.912009 C242.535753,284.912009 244.544192,289.44893 245.883151,291.633373 C245.883151,291.633373 244.376822,297.23451 237.068337,289.44893 L234.892529,288.384714 C234.892529,288.384714 235.729378,304.235931 236.175698,307.0365 C236.175698,307.0365 237.570447,325.408228 230.931441,321.767489 C230.931441,321.767489 231.879871,328.152785 227.528253,328.152785 C227.528253,328.152785 225.185075,327.648683 224.738755,325.46424 C224.738755,325.46424 221.000828,330.673297 218.43449,317.230569 L215.868151,306.64442 C215.868151,306.64442 217.151321,320.927319 213.692343,321.767489 C213.692343,321.767489 211.460744,323.279796 209.954415,309.837068 C209.954415,309.837068 207.443867,302.443567 207.890187,301.155306 C207.890187,301.155306 204.877529,293.14568 205.100689,283.623748 C205.100689,283.623748 205.547008,277.57452 206.607018,276.286258 C206.607018,276.286258 205.435428,262.84353 193.663746,244.02371 C193.663746,244.02371 180.162576,226.268107 180.162576,195.965956 C180.162576,195.965956 177.149918,177.986307 173.9141,173.673432 C173.9141,173.673432 161.417148,194.90174 166.159295,218.482526 C166.159295,218.482526 168.111944,232.317334 167.219304,239.486789 C167.219304,239.486789 178.656247,278.862781 178.209927,295.946249 C178.209927,295.946249 181.780484,358.286902 174.974109,378.450994 C174.974109,378.450994 174.19305,383.21196 175.308849,387.30079 C175.308849,387.30079 177.875187,394.470245 176.592018,411.105622 C176.592018,411.105622 177.707817,420.8516 179.046776,425.556555 C179.046776,425.556555 183.286813,454.8505 175.085689,477.367071 C175.085689,477.367071 166.661405,505.764834 168.167734,515.958903 C168.167734,515.958903 170.510912,526.48904 168.167734,532.314223 C168.167734,532.314223 170.120382,542.060201 174.19305,547.045213 C174.19305,547.045213 177.875187,550.517917 177.875187,556.791191 C177.875187,556.791191 179.046776,562.616373 174.750949,563.7366 C174.750949,563.7366 173.46778,566.98526 171.068812,566.089078 C171.068812,566.089078 170.008802,568.441555 167.163514,567.82543 C167.163514,567.82543 162.644527,571.746226 160.245559,567.937453 C160.245559,567.937453 157.009741,574.322749 150.984425,568.049476 C150.984425,568.049476 143.78752,558.527543 147.190708,551.806179 C147.190708,551.806179 148.250717,546.821167 146.521228,542.732337 C146.521228,542.732337 144.791739,536.459064 146.074909,533.882541 C146.074909,533.882541 144.12226,525.032745 146.911758,518.087335 C146.911758,518.087335 149.478096,501.619993 148.418087,491.705981 C148.418087,491.705981 146.074909,478.263252 144.12226,473.726332 C144.12226,473.726332 139.603273,448.801273 144.56858,433.454158 C144.56858,433.454158 147.581238,424.156271 144.791739,415.082429 C144.791739,415.082429 140.663282,405.112405 140.161173,390.661472 C140.161173,390.661472 135.976925,381.811676 135.753766,371.001482 C135.753766,371.001482 134.582176,338.234832 129.39371,326.360422 C129.39371,326.360422 125.321043,314.037921 126.715792,297.346533 L119.630466,297.346533 C121.025216,314.037921 116.952548,326.360422 116.952548,326.360422 C111.764082,338.290843 110.592493,371.169516 110.592493,371.169516 C110.369333,381.97971 106.185086,390.773495 106.185086,390.773495 C105.682976,405.28044 101.554519,415.194452 101.554519,415.194452 C98.7650206,424.268293 101.777679,433.566181 101.777679,433.566181 C106.742985,448.913295 102.223998,473.838354 102.223998,473.838354 C100.27135,478.375275 97.9281711,491.818004 97.9281711,491.818004 C96.8681618,501.788027 99.4345001,518.199358 99.4345001,518.199358 C102.223998,525.144768 100.27135,533.994564 100.27135,533.994564 C101.554519,536.571087 99.8250298,542.84436 99.8250298,542.84436 C98.095541,546.93319 99.1555503,551.918202 99.1555503,551.918202 C102.614528,558.639566 95.3618329,568.161498 95.3618329,568.161498 C89.3365169,574.434772 86.1006991,568.049476 86.1006991,568.049476 C83.7017307,571.858249 79.1827438,567.937453 79.1827438,567.937453 C76.3932457,568.609589 75.2774464,566.201101 75.2774464,566.201101 C72.8784781,567.041271 71.5953089,563.848623 71.5953089,563.848623 C67.2994818,562.784407 68.471071,556.903213 68.471071,556.903213 C68.471071,550.62994 72.1532086,547.157235 72.1532086,547.157235 C76.2258758,542.172224 78.1785245,532.426246 78.1785245,532.426246 C75.8353461,526.601063 78.1785245,516.070926 78.1785245,516.070926 C79.6848535,505.876857 71.2605692,477.479093 71.2605692,477.479093 C63.0594447,454.962523 67.2994818,425.668578 67.2994818,425.668578 C68.6384409,420.963623 69.7542402,411.217645 69.7542402,411.217645 C68.471071,394.582268 71.0374093,387.412813 71.0374093,387.412813 C72.0974186,383.323983 71.3721491,378.563017 71.3721491,378.563017 C64.6215637,358.454936 68.1363313,296.058271 68.1363313,296.058271 C67.6900116,278.974804 79.1269538,239.598812 79.1269538,239.598812 C78.2901044,232.485368 80.1869631,218.594549 80.1869631,218.594549 C84.9291099,195.013763 72.4321584,173.785454 72.4321584,173.785454 C69.1963406,178.09833 66.1836826,196.077979 66.1836826,196.077979 C66.1836826,226.380129 52.6825117,244.135733 52.6825117,244.135733 C40.9108297,262.955553 39.7392405,276.398281 39.7392405,276.398281 C40.7992498,277.686543 41.2455695,283.73577 41.2455695,283.73577 C41.4687293,293.257703 38.4560713,300.651204 38.4560713,300.651204 C38.902391,301.939465 36.3918427,309.949091 36.3918427,309.949091 C34.8855138,323.391819 32.6539153,321.879512 32.6539153,321.879512 C29.1949376,321.039342 30.4781067,306.756443 30.4781067,306.756443 L27.9117685,317.342591 C25.3454302,330.78532 21.6075027,325.576262 21.6075027,325.576262 C21.161183,327.760706 18.8180046,328.264808 18.8180046,328.264808 C14.5221775,328.264808 15.4148169,321.879512 15.4148169,321.879512 C8.77581142,325.576262 10.1705605,307.148522 10.1705605,307.148522 C10.6168802,304.347954 11.4537296,288.496737 11.4537296,288.496737 L9.27792108,289.560953 C1.96943602,297.346533 0.463107039,291.745396 0.463107039,291.745396 C1.74627617,289.560953 3.81050478,285.024032 3.81050478,285.024032 C5.59578357,281.383293 7.82738206,280.03902 7.82738206,280.03902 C10.5610902,278.638736 12.346369,276.790361 12.346369,276.790361 C14.2990177,272.869565 23.2812016,267.268428 23.2812016,267.268428 C24.7875306,264.915951 27.074919,250.184961 27.074919,250.184961 C30.9244264,199.998775 36.001313,193.893536 36.001313,193.893536 C38.1771215,189.356615 39.2929208,186.332001 39.2929208,186.332001 C40.5760899,164.039476 44.7045471,153.453328 44.7045471,153.453328 C46.2108761,148.468316 45.9877163,145.891793 45.9877163,145.891793 C44.2582274,130.936758 49.4466939,114.917506 49.4466939,114.917506 C53.742521,99.5703914 82.2511917,94.8654365 82.2511917,94.8654365 C103.395587,89.4323338 104.176647,83.4391174 104.176647,83.4391174 L104.176647,66.0755932 C101.777679,63.8911499 102.168208,58.2340017 102.168208,58.2340017 C101.108199,59.9703541 99.0997603,57.3378198 99.0997603,57.3378198 C88.3322976,39.582216 97.7050113,39.9742956 97.7050113,39.9742956 C97.7050113,39.9742956 94.0228738,35.325352 95.0828831,29.5001697 C95.0828831,29.5001697 91.8470652,11.296475 105.906136,7.6557361 C105.906136,7.6557361 106.129296,3.11881527 111.317762,1.60650833 C111.317762,1.60650833 108.528264,3.56690622 110.480913,4.18303127 C110.480913,4.18303127 121.025216,-3.15445798 128.389491,1.60650833 C128.389491,1.60650833 142.169611,-1.30608283 148.641247,14.2650776 C148.641247,14.2650776 153.383394,18.4659302 151.263375,26.2515104 C151.263375,26.2515104 154.387613,32.4687722 148.585457,39.9742956 Z" id="Shape"></path>
            </g>
        </g>
    </g>
</svg>