<?xml version="1.0" encoding="utf-8"?>
<svg xmlns="http://www.w3.org/2000/svg" viewBox="0 0 24 24" fill="#000000"><path d="M 3 4 C 3 4.979 3.14225 7.156 3.15625 7.375 C 2.44925 7.864 2 8.6655 2 9.5625 C 2 10.9015 2.99725 12.01675 4.28125 12.21875 C 5.61825 15.48375 8.319 19 12 19 C 15.681 19 18.38275 15.48475 19.71875 12.21875 C 21.00275 12.01775 22 10.9015 22 9.5625 C 22 8.6655 21.55075 7.865 20.84375 7.375 C 20.85675 7.155 21 4.988 21 4 L 19.09375 4 C 19.09375 7.109 18.71875 8.65625 18.71875 8.65625 L 19.5 8.90625 C 19.793 8.99525 20 9.2625 20 9.5625 C 20 9.9785 19.61475 10.315 19.21875 10.25 L 18.375 10.09375 L 18.09375 10.875 C 17.00575 13.919 14.705 17 12 17 C 9.295 17 6.99325 13.919 5.90625 10.875 L 5.625 10.09375 L 4.78125 10.25 C 4.38125 10.316 4 9.9785 4 9.5625 C 4 9.2625 4.207 8.99525 4.5 8.90625 L 5.28125 8.6875 C 5.28125 8.6875 4.90625 6.906 4.90625 4 L 3 4 z M 9.5 5 C 8.6715729 5 8 5.6715729 8 6.5 C 8 7.3284271 8.6715729 8 9.5 8 C 10.328427 8 11 7.3284271 11 6.5 C 11 5.6715729 10.328427 5 9.5 5 z M 14.5 5 C 13.671573 5 13 5.6715729 13 6.5 C 13 7.3284271 13.671573 8 14.5 8 C 15.328427 8 16 7.3284271 16 6.5 C 16 5.6715729 15.328427 5 14.5 5 z M 11.375 10 C 11.035 10 10.81275 10.237 10.59375 10.5 C 10.36275 10.781 9.76625 11.469 9.28125 11.625 C 8.23625 11.961 8.02 10.83625 8.625 10.65625 C 8.285 10.65625 8.001 10.9455 8 11.3125 C 8 11.7935 8.3125 12.3125 9.8125 12.3125 C 10.63475 12.3125 11.539177 12.113398 12 11.625 C 12.460823 12.113398 13.36525 12.3125 14.1875 12.3125 C 15.6865 12.3125 16 11.7935 16 11.3125 C 16 10.9455 15.715 10.65625 15.375 10.65625 C 15.98 10.83625 15.76375 11.961 14.71875 11.625 C 14.23375 11.469 13.63725 10.781 13.40625 10.5 C 13.18725 10.237 12.965 10 12.625 10 C 12.386814 10 12.163893 10.076279 12 10.21875 C 11.836107 10.076279 11.613186 10 11.375 10 z" fill="#000000"/></svg>
