<?xml version="1.0" encoding="UTF-8" standalone="no"?>
<svg width="154px" height="571px" viewBox="0 0 154 571" version="1.1" xmlns="http://www.w3.org/2000/svg" xmlns:xlink="http://www.w3.org/1999/xlink">
    <!-- Generator: Sketch 41.2 (35397) - http://www.bohemiancoding.com/sketch -->
    <title>Combined Shape</title>
    <desc>Created with Sketch.</desc>
    <defs></defs>
    <g id="Page-1" stroke="none" stroke-width="1" fill="none" fill-rule="evenodd" fill-opacity="0.2">
        <path d="M78.658093,355.691527 C81.1003219,366.555635 83.5277282,379.570114 82.3068572,383.951558 C80.0800646,391.943037 79.6652039,396.375811 80.5852079,399.699919 C81.5052119,403.024026 84.77014,407.920321 84.77014,416.795328 C84.77014,425.670336 86.7869291,487.524843 94.1881291,506.491364 C92.4191818,525.268693 96.7327646,531.364466 96.7327646,533.786127 C96.7327646,536.207787 91.8743082,549.159887 91.8743082,556.774874 C91.8743082,564.389862 90.9075359,569.603999 100.412553,569.603999 C109.917571,569.603999 121.443162,562.2028 121.443162,554.25105 C121.443162,546.299301 111.854899,540.602723 111.854899,534.083159 C111.854899,527.563594 111.122726,509.106001 113.98142,495.665785 C116.840115,482.225569 117.426611,448.609894 117.426611,430.924204 C117.426611,413.238515 113.139515,392.442505 113.139515,392.442505 C113.139515,392.442505 123.941088,341.884666 123.941088,323.03166 C133.500971,323.979513 137.432386,317.338866 140.209727,313.235286 C142.987069,309.131707 144.897911,297.800984 144.897911,285.14024 C144.897911,272.479496 146.430368,254.839213 149.714745,244.78743 C152.999122,234.735647 153.72562,201.770793 150.617192,184.970523 C152.111811,168.164577 146.369826,112.532603 141.534073,100.146187 C136.69832,87.7597722 129.823074,83.3875398 122.124842,83.3875398 C114.426611,83.3875398 106.529727,81.9534627 100.131246,77.1158174 C93.7327646,72.2781721 92.2684168,59.1406638 93.0005907,54.4241015 C93.7327646,49.7075392 100.23341,42.6847237 100.23341,31.0115632 C100.23341,19.3384027 98.9790651,1 79.6984851,1 C79.5304759,1 79.3650094,1.02568396 79.202054,1.07660427 C79.033126,1.02568045 78.8612602,1 78.6864187,1 C58.1408784,1 56.8042389,19.3384027 56.8042389,31.0115632 C56.8042389,42.6847237 63.7313782,49.7075392 64.5115886,54.4241015 C65.291799,59.1406638 63.7313782,72.2781721 56.9131055,77.1158174 C50.0948328,81.9534627 41.6798504,83.3875398 33.4765531,83.3875398 C25.2732557,83.3875398 17.946939,87.7597722 12.7939216,100.146187 C7.64090414,112.532603 1.52219992,168.164577 3.11487746,184.970523 C-0.197488614,201.770793 0.576673633,234.735647 4.07653212,244.78743 C7.57639061,254.839213 9.2093891,272.479496 9.2093891,285.14024 C9.2093891,297.800984 11.2455971,309.131707 14.2051549,313.235286 C17.1647126,317.338866 21.3540594,323.979513 31.5411475,323.03166 C31.5411475,341.884666 41.2482141,392.442505 41.2482141,392.442505 C41.2482141,392.442505 36.6798504,413.238515 36.6798504,430.924204 C36.6798504,448.609894 37.3048252,482.225569 40.351073,495.665785 C43.3973208,509.106001 42.6171104,527.563594 42.6171104,534.083159 C42.6171104,540.602723 32.3997815,546.299301 32.3997815,554.25105 C32.3997815,562.2028 44.681543,569.603999 54.8101658,569.603999 C64.9387885,569.603999 63.9085882,564.389862 63.9085882,556.774874 C63.9085882,549.159887 58.7313782,536.207787 58.7313782,533.786127 C58.7313782,531.364466 63.3279665,525.268693 61.4429621,506.491364 C69.32974,487.524843 71.4788466,425.670336 71.4788466,416.795328 C71.4788466,407.920321 75.7676486,389.555315 74.1037405,383.951558 C71.8195827,376.258906 78.1792787,357.112654 78.658093,355.691527 Z M122.238358,121.581667 C122.238358,121.581667 118.266121,124.085423 118.266121,127.863142 C118.266121,131.640861 120.046691,133.35466 120.046691,140.882705 C120.046691,148.41075 113.919133,150.930941 113.919133,150.930941 C113.919133,150.930941 110.436749,193.929996 112.3209,198.773489 C114.205052,203.616983 127.923146,224.538681 127.923146,260.624331 C127.923146,296.70998 127.801588,288.052814 127.801588,288.052814 C127.801588,288.052814 131.444908,278.645754 131.673472,269.635042 C131.902035,260.624331 130.208781,206.959832 131.673472,201.336483 C133.138162,195.713135 127.613258,178.237011 125.433772,165.554729 C123.254286,152.872447 122.238358,121.581667 122.238358,121.581667 Z M33.3555902,121.581667 C33.3555902,121.581667 37.5884371,124.085423 37.5884371,127.863142 C37.5884371,131.640861 35.6910474,133.35466 35.6910474,140.882705 C35.6910474,148.41075 42.2206222,150.930941 42.2206222,150.930941 C42.2206222,150.930941 45.9314786,193.929996 43.9237119,198.773489 C41.9159452,203.616983 27.2978345,224.538681 27.2978345,260.624331 C27.2978345,296.70998 27.4273679,288.052814 27.4273679,288.052814 C27.4273679,288.052814 23.5450166,278.645754 23.3014574,269.635042 C23.0578983,260.624331 24.8622429,206.959832 23.3014574,201.336483 C21.7406719,195.713135 27.6280533,178.237011 29.9505313,165.554729 C32.2730093,152.872447 33.3555902,121.581667 33.3555902,121.581667 Z M29.762605,314.513144 C29.762605,314.513144 27.0249223,301.186303 27.8818852,298.877282 C28.7388481,296.568261 25.194055,303.190755 25.194055,305.985184 C25.194055,308.779614 29.762605,314.513144 29.762605,314.513144 Z M124.575357,314.513144 C124.575357,314.513144 128.054543,301.186303 126.965471,298.877282 C125.8764,296.568261 130.381302,303.190755 130.381302,305.985184 C130.381302,308.779614 124.575357,314.513144 124.575357,314.513144 Z" id="Combined-Shape" stroke="#84D020" stroke-width="2" fill="#FFFFFF"></path>
    </g>
</svg>